<svg xmlns="http://www.w3.org/2000/svg" viewBox="175 50 330 330" role="img">
  <title>Ícone de calendário invertido</title>
  <desc>Um ícone de calendário com o corpo em branco e os detalhes na cor 0d1117.</desc>

  <rect x="190" y="90" width="300" height="280" rx="16" fill="#ffffff"/>
  <rect x="190" y="90" width="300" height="70" rx="16" fill="#ffffff"/>
  <rect x="190" y="140" width="300" height="20" fill="#ffffff"/>
  <rect x="240" y="60" width="18" height="60" rx="9" fill="#ffffff"/>
  <rect x="422" y="60" width="18" height="60" rx="9" fill="#ffffff"/>

  <line x1="190" y1="160" x2="490" y2="160" stroke="#0d1117" stroke-width="2"/>

  <g fill="#0d1117">
    <circle cx="230" cy="200" r="8"/>
    <circle cx="280" cy="200" r="8"/>
    <circle cx="330" cy="200" r="8"/>
    <circle cx="380" cy="200" r="8"/>
    <circle cx="430" cy="200" r="8"/>
    <circle cx="230" cy="250" r="8"/>
    <circle cx="280" cy="250" r="8"/>
    <circle cx="330" cy="250" r="8"/>
    <circle cx="380" cy="250" r="8"/>
    <circle cx="430" cy="250" r="8"/>
    <circle cx="230" cy="300" r="8"/>
    <circle cx="280" cy="300" r="8"/>
  </g>

  <circle cx="330" cy="300" r="18" fill="#0d1117"/>
  <circle cx="330" cy="300" r="18" fill="none" stroke="#ffffff" stroke-width="2"/>

  <g fill="#0d1117">
    <circle cx="380" cy="300" r="8"/>
    <circle cx="430" cy="300" r="8"/>
  </g>
</svg>

